<?xml version="1.0" encoding="UTF-8"?>
<!DOCTYPE svg PUBLIC "-//W3C//DTD SVG 1.1//EN" "http://www.w3.org/Graphics/SVG/1.1/DTD/svg11.dtd">
<!-- Creator: CorelDRAW -->
<svg xmlns="http://www.w3.org/2000/svg" xml:space="preserve" width="55mm" height="51mm" style="shape-rendering:geometricPrecision; text-rendering:geometricPrecision; image-rendering:optimizeQuality; fill-rule:evenodd; clip-rule:evenodd"
viewBox="0 0 55 51"
 xmlns:xlink="http://www.w3.org/1999/xlink">
 <defs>
  <style type="text/css">
   <![CDATA[
    .fil1 {fill:white}
    .fil0 {fill:url(#id0)}
   ]]>
  </style>
  <linearGradient id="id0" gradientUnits="userSpaceOnUse" x1="51.661" y1="0.0948" x2="3.3334" y2="52.341">
   <stop offset="0" style="stop-color:#159F8F"/>
   <stop offset="0.580392" style="stop-color:#42BD97"/>
   <stop offset="1" style="stop-color:#70DCA0"/>
  </linearGradient>
 </defs>
 <g id="Capa_x0020_1">
  <metadata id="CorelCorpID_0Corel-Layer"/>
  <g id="_713821608">
   <path id="_713819616" class="fil0" d="M5.2391 0.8741l44.6679 0c2.0163,0 3.666,1.652 3.666,3.666l0 22.4661c0,19.0684 -52.1516,24.5556 -52.146,22.8157l0.146 -45.2818c0.0065,-2.0163 1.6498,-3.666 3.6661,-3.666z"/>
   <path id="_345833808" class="fil1" d="M21.7159 17.6003l11.5681 0c1.2769,0 2.3215,1.0446 2.3215,2.3215l0 11.1564c0,1.2769 -1.0446,2.3215 -2.3215,2.3215l-11.5681 0c-1.2769,0 -2.3215,-1.0446 -2.3215,-2.3215l0 -11.1564c0,-1.2769 1.0446,-2.3215 2.3215,-2.3215zm8.4015 12.3245l-1.1416 0.6642c0.0864,0.2159 0.3197,0.5024 0.4454,0.6337 0.6015,0.6284 1.5523,0.8729 2.4506,0.7935 1.2636,-0.1119 2.1856,-0.914 1.9912,-2.3157 -0.0932,-0.6715 -0.461,-1.0574 -0.852,-1.3284 -0.5021,-0.3481 -0.9152,-0.4756 -1.4553,-0.7253 -0.4152,-0.192 -0.8073,-0.3715 -0.7667,-0.8681 0.0485,-0.5944 0.8909,-0.7549 1.3531,-0.2694 0.1046,0.1098 0.1488,0.1896 0.2311,0.3162 0.0599,-0.0232 0.9628,-0.6134 1.0918,-0.6979 -0.0273,-0.1222 -0.3494,-0.516 -0.4664,-0.6128 -0.2226,-0.1841 -0.3878,-0.2999 -0.6809,-0.3969 -0.5967,-0.1974 -1.2948,-0.1563 -1.8455,0.0736 -1.1735,0.4896 -1.3629,2.0004 -0.7162,2.8767 0.8433,1.1426 2.9023,1.0705 2.7063,2.1213 -0.0827,0.4432 -0.5791,0.6032 -1.0293,0.5855 -0.5778,-0.0227 -0.9727,-0.3237 -1.2593,-0.7684 -0.0077,-0.0119 -0.0132,-0.0222 -0.0237,-0.0389l-0.0326 -0.0429zm-6.1358 0.8146c0.0387,0.1327 0.2243,0.3931 0.2982,0.4863 0.1228,0.1548 0.2329,0.2596 0.3983,0.3789 0.3062,0.2213 0.6763,0.37 1.1412,0.4112 0.4612,0.0408 0.972,-0.0202 1.3434,-0.1961 0.8575,-0.4064 1.0435,-1.1866 1.0435,-2.0828l0 -4.662 -1.413 0 -0.0001 4.0353c0,0.5698 0.1253,1.414 -0.408,1.6067 -0.4354,0.1573 -0.8326,-0.0119 -1.0641,-0.3569 -0.0636,-0.0947 -0.1464,-0.2162 -0.1859,-0.316 -0.1359,0.0786 -1.0978,0.6463 -1.1535,0.6954z"/>
  </g>
 </g>
</svg>
