<?xml version="1.0" encoding="UTF-8"?>
<!DOCTYPE svg PUBLIC "-//W3C//DTD SVG 1.1//EN" "http://www.w3.org/Graphics/SVG/1.1/DTD/svg11.dtd">
<!-- Creator: CorelDRAW -->
<svg xmlns="http://www.w3.org/2000/svg" xml:space="preserve" width="55mm" height="51mm" style="shape-rendering:geometricPrecision; text-rendering:geometricPrecision; image-rendering:optimizeQuality; fill-rule:evenodd; clip-rule:evenodd"
viewBox="0 0 55 51"
 xmlns:xlink="http://www.w3.org/1999/xlink">
 <defs>
  <style type="text/css">
   <![CDATA[
    .fil1 {fill:white}
    .fil0 {fill:url(#id0)}
   ]]>
  </style>
  <linearGradient id="id0" gradientUnits="userSpaceOnUse" x1="51.661" y1="0.0949" x2="3.3334" y2="52.3411">
   <stop offset="0" style="stop-color:#8E00FB"/>
   <stop offset="0.580392" style="stop-color:#B300FD"/>
   <stop offset="1" style="stop-color:#D900FF"/>
  </linearGradient>
 </defs>
 <g id="Capa_x0020_1">
  <metadata id="CorelCorpID_0Corel-Layer"/>
  <path class="fil0" d="M5.2391 0.8742l44.6679 0c2.0163,0 3.666,1.652 3.666,3.666l0 22.4661c0,19.0684 -52.1516,24.5556 -52.146,22.8157l0.146 -45.2818c0.0065,-2.0163 1.6498,-3.666 3.6661,-3.666z"/>
  <path class="fil1" d="M20.76 17.6321l13.48 0 -1.2655 13.8652 -5.6671 1.8707 -5.392 -1.9807 -1.1554 -13.7552zm2.751 3.1362l7.978 0 0 1.3755 -4.1816 1.9808 4.0065 0 -0.2101 4.8968 -3.7964 1.2104 -3.3562 -1.2654 -0.0551 -2.3659 1.6507 0 -0.0551 1.2104 1.9257 0.7153 1.9808 -0.6603 0.3201 -2.1357 -5.7571 0.0005 -0.0558 -1.6287 4.2904 -1.7931 -4.6089 -0.1485 -0.0759 -1.3921z"/>
 </g>
</svg>
