<?xml version="1.0" encoding="UTF-8"?>
<!DOCTYPE svg PUBLIC "-//W3C//DTD SVG 1.1//EN" "http://www.w3.org/Graphics/SVG/1.1/DTD/svg11.dtd">
<!-- Creator: CorelDRAW -->
<svg xmlns="http://www.w3.org/2000/svg" xml:space="preserve" width="20mm" height="25mm" style="shape-rendering:geometricPrecision; text-rendering:geometricPrecision; image-rendering:optimizeQuality; fill-rule:evenodd; clip-rule:evenodd"
viewBox="0 0 20 25"
 xmlns:xlink="http://www.w3.org/1999/xlink">
 <defs>
  <style type="text/css">
   <![CDATA[
    .fil0 {fill:#FD1100}
    .fil1 {fill:#FD3C00}
   ]]>
  </style>
 </defs>
 <g id="Capa_x0020_1">
  <metadata id="CorelCorpID_0Corel-Layer"/>
  <g id="_348452336">
   <path id="_348451736" class="fil0" d="M6.9764 18.4496c-0.1525,0.1667 -0.1139,-0.0453 -0.0374,0.2541 0.171,0.6683 1.423,2.0191 2.2474,2.4078 1.3649,0.6435 2.5649,0.9698 4.2185,0.4711 1.9557,-0.5897 1.6223,-0.998 2.2411,-1.1313l0.2416 -0.2153c4.1118,-5.1219 -1.1692,-9.9967 -3.6619,-13.507 -1.1462,-1.6141 -1.6037,-2.4676 -1.8435,-4.9332l-1.4386 2.703c-0.3529,1.2496 -0.1875,2.4 0.2501,3.4803 1.4164,3.4972 6.9898,7.0602 3.4536,10.5347 -1.2277,1.2062 -2.8646,1.672 -4.5257,0.7881 -0.505,-0.2687 -0.8223,-0.7006 -1.1452,-0.8523z"/>
   <path id="_348452048" class="fil1" d="M15.646 20.4513c-0.6188,0.1333 -0.2854,0.5416 -2.2411,1.1313 -1.6536,0.4987 -2.8536,0.1724 -4.2185,-0.4711 -0.8244,-0.3887 -2.0764,-1.7395 -2.2474,-2.4078 -0.0765,-0.2994 -0.1151,-0.0874 0.0374,-0.2541 -0.1815,-0.4056 -0.3195,-0.3422 -0.7481,-1.2466 -0.6056,-1.2778 -0.345,-2.5493 0.2852,-3.7252 0.1019,-0.19 0.2584,-0.4355 0.4087,-0.5619 1.2917,0.8177 2.6556,1.7529 4.2927,1.2046l-0.6961 -0.7767c-0.6574,-0.8482 -1.2086,-1.5301 -1.749,-2.6599 -0.7989,-1.6704 -1.0768,-2.5336 -1.2061,-4.6357l-0.6374 0.4786 -1.5366 2.0197c-0.6826,0.9911 -1.1598,1.8887 -1.724,3.0191 -0.4984,0.9986 -0.9363,2.3838 -1.0406,3.6819 -0.3329,4.1417 2.1866,7.499 6.3263,7.9006 1.6742,0.1625 2.6676,-0.0259 3.9985,-0.6044 0.7475,-0.3249 2.3891,-1.376 2.6961,-2.0924z"/>
  </g>
 </g>
</svg>
