<?xml version="1.0" encoding="UTF-8"?>
<!DOCTYPE svg PUBLIC "-//W3C//DTD SVG 1.1//EN" "http://www.w3.org/Graphics/SVG/1.1/DTD/svg11.dtd">
<!-- Creator: CorelDRAW -->
<svg xmlns="http://www.w3.org/2000/svg" xml:space="preserve" width="178mm" height="53mm" style="shape-rendering:geometricPrecision; text-rendering:geometricPrecision; image-rendering:optimizeQuality; fill-rule:evenodd; clip-rule:evenodd"
viewBox="0 0 178 53"
 xmlns:xlink="http://www.w3.org/1999/xlink">
 <defs>
  <style type="text/css">
   <![CDATA[
    .fil1 {fill:#2F2B3B}
    .fil2 {fill:#FB1301}
    .fil0 {fill:#FD3C00}
   ]]>
  </style>
 </defs>
 <g id="Capa_x0020_1">
  <metadata id="CorelCorpID_0Corel-Layer"/>
  <g id="_348450800">
   <g>
    <path id="_348451448" class="fil0" d="M74.0879 18.0198c2.2248,-0.1104 4.6823,-0.0171 6.9326,-0.0172 1.666,0 2.0832,0.2446 2.2459,-0.3983 0.1669,-0.6592 0.7148,-3.094 0.6945,-3.5459l-14.9169 -0.0186 -0.6112 3.7545c0.0105,0.1142 3.7789,4.2154 4.1759,4.6429l6.3083 6.9029c2.9141,2.9541 2.8425,9.649 -2.2215,11.5987 -4.2811,1.6483 -8.9721,-3.785 -6.8885,-9.1724 0.8291,-2.1435 2.2286,-3.6412 4.6683,-4.0514l-1.2295 -3.7233 -3.7454 1.7081c-0.9959,0.7548 -1.9006,1.8426 -2.5039,2.9205 -1.4361,2.5659 -2.0165,5.5177 -1.1715,8.8037 2.4368,9.4763 14.5557,10.5106 18.2139,1.299 1.6503,-4.1554 0.6914,-9.0828 -2.3649,-12.2278 -0.8417,-0.8661 -1.6672,-1.8644 -2.5448,-2.792 -0.3667,-0.3875 -4.9625,-5.2968 -5.0413,-5.6834z"/>
    <path id="_348451376" class="fil0" d="M103.487 24.0126l0.0518 -0.1676c1.1028,0 3.1044,-0.0946 3.9856,0.0453 -0.1251,-0.3694 -1.2919,-0.2201 -2.0385,-0.2198 -0.6823,0.0002 -1.4221,-0.0677 -2.0857,0.0376 -2.7912,0.4432 -7.8502,-0.692 -11.9725,0.8916 -1.9588,0.7525 -3.8708,2.0938 -4.5162,4.1099 -0.5722,1.7874 0.0252,3.4766 1.2503,4.7573 0.3154,0.3298 0.9495,0.7293 1.0777,1.0466 -1.1258,1.2445 -2.1988,2.0943 -2.4725,3.5225 -0.3127,1.6319 0.3419,3.2798 1.4751,4.3276 0.7759,0.7175 0.8852,0.7729 1.6791,1.2814 2.7395,1.7546 7.346,1.982 10.7384,0.9386 0.8171,-0.2514 2.1256,-0.7472 2.6325,-1.2648l-1.8697 -3.1972c-0.7513,0.3424 -1.3653,0.6627 -2.1937,0.8427 -6.7077,1.4574 -11.495,-2.1648 -6.6994,-3.9968 1.7765,-0.6787 3.4162,-0.4888 5.469,-0.6339l0.543 -3.758 -5.7124 -0.4686c-1.4701,-0.4928 -3.337,-1.7619 -1.541,-3.1545 0.2732,-0.2119 0.6762,-0.4454 1.0038,-0.6051 1.4606,-0.7118 5.1602,-0.7286 6.8445,-0.7331 0.6983,-0.0019 2.4439,0.0738 3.0181,-0.0754l0.5978 -1.8657c0.1775,-0.5624 0.4043,-1.6464 0.7349,-1.6606z"/>
    <path id="_348451304" class="fil0" d="M107.525 23.8903c-0.8812,-0.1399 -2.8828,-0.0453 -3.9856,-0.0453l-0.0518 0.1676c-0.017,0.3625 0.6447,2.2497 0.7985,2.7209l2.4906 7.9433c0.2434,0.7826 3.0813,9.9146 3.3947,10.4745l4.1723 0.0089c1.2261,-3.602 2.2814,-7.1689 3.4587,-10.6868 0.2158,-0.6449 3.3333,-10.2854 3.3475,-10.7897l-4.1592 -0.0145 -4.3583 13.8417c-0.1975,0.6594 -0.0909,0.6777 -0.3734,0.8312l-3.5697 -10.9188c-0.0802,-0.2359 -1.04,-3.3752 -1.1643,-3.533z"/>
    <path id="_348451016" class="fil0" d="M157.042 18.6303c-0.4627,0.1531 -1.631,2.2335 -5.233,1.5899 -1.453,-0.2596 -2.3393,-1.0432 -3.1744,-2.0258 -0.1429,-0.1682 -0.2189,-0.2897 -0.3529,-0.4896 -0.4258,-0.6354 -0.1181,-0.5543 -0.105,-0.5756l0.3492 0.2818c-0.2195,-0.4068 -0.6846,-0.7195 -0.9549,-1.1978 -0.9827,-1.7392 -0.5718,-3.3043 0.4126,-4.8149 0.778,0.5098 0.9516,0.6759 1.8291,1.0614 0.7907,0.3475 1.4553,0.4308 2.4831,0.2024 -0.2417,-0.3548 -0.0809,-0.1442 -0.3436,-0.4069 -1.8142,-1.8143 -3.156,-4.959 -3.2579,-7.6691 -0.8888,0.6662 -0.5215,0.3302 -1.202,1.1565 -1.0265,1.2463 -2.0947,2.9384 -2.755,4.4452 -1.6048,3.6621 -1.558,8.0845 2.1318,10.3733 1.1724,0.7272 1.9562,0.9728 3.6751,1.1702 2.5592,0.2939 5.9739,-1.7092 6.4978,-3.101z"/>
   </g>
   <g>
    <path id="_348451352" class="fil1" d="M126.824 52.2785c0.164,-1.1683 0.0309,-3.4408 0.0309,-4.7264 0,-2.0527 -0.0784,-13.7429 0.0488,-14.0963 0.5562,1.7783 1.4172,4.258 1.8667,5.8895 0.2899,1.0519 0.6329,1.9729 0.9272,2.9474 0.236,0.7812 0.6162,2.1716 0.9406,2.867l4.2232 -0.0011 2.828 -8.7439c0.2327,-0.7354 0.6646,-2.3373 0.9633,-2.8395l1.0136 8.4143c0.5285,1.0517 1.2984,1.8956 2.1634,2.4876 0.6703,0.4588 2.3817,1.4086 3.378,1.3221l0.6368 -4.0046c-1.6732,-0.81 -2.4089,-0.8623 -2.7692,-2.5454 -0.1337,-0.6243 -0.3821,-1.7041 -0.4025,-2.2781 -0.0677,-1.9083 0.1222,-12.9388 -0.126,-13.1731 -0.2905,-0.2742 -4.8316,-0.128 -5.0536,-0.1004l-2.3511 7.4583c-0.6287,2.1143 -1.4153,4.3864 -2.0363,6.5384 -0.1854,0.6427 -0.1537,0.6976 -0.3608,0.7723l-2.3876 -7.3914c-0.6685,-2.021 -1.8303,-5.5305 -2.3632,-7.3942l-5.0119 0.0477c-0.1196,0.403 -0.0815,0.4448 -0.078,0.8784 0.0339,4.1721 -0.1347,27.3815 0.0536,28.0672l3.8661 -0.3958z"/>
    <path id="_348450632" class="fil1" d="M56.4553 35.1061c-0.9641,2.4327 -2.4717,6.343 -5.8283,6.0504 -3.0967,-0.2699 -4.7648,-4.1462 -4.5057,-7.4928 0.4118,-5.3208 5.9779,-9.8487 9.7821,-0.866 0.2734,0.6456 0.8304,1.6057 0.5519,2.3084zm6.1149 8.3011c0.0141,-1.747 -1.9131,-8.4246 -1.8776,-8.8879 0.0031,-0.0404 1.8117,-6.9642 1.9352,-8.7265 -0.4776,-0.2868 -3.2966,-2.0744 -3.6404,-2.0545l-0.79 4.5401c-0.3075,-0.2881 -0.2346,-0.2496 -0.4649,-0.6136 -2.1129,-3.3395 -6.2321,-4.9569 -9.8869,-3.2216 -7.6983,3.6553 -7.2242,16.6382 -0.1342,19.9336 2.0368,0.9467 4.1639,1.0597 6.3454,0.0755 1.3247,-0.5976 2.429,-1.3567 3.3091,-2.5215l0.7506 -1.0534c0.0072,-0.0328 0.0303,-0.0363 0.0469,-0.053 0.1372,0.227 0.1545,0.2186 0.2156,0.5026l0.307 1.6147c0.1314,0.6927 0.2213,1.5507 0.4086,2.2138l3.4756 -1.7483z"/>
    <path id="_348450440" class="fil1" d="M171.973 34.9368c-0.9597,2.4842 -2.4741,6.4107 -5.7079,6.2564 -1.6384,-0.0782 -2.8437,-1.222 -3.5681,-2.4296 -1.5379,-2.5633 -1.5855,-6.7517 0.3734,-9.23 2.4456,-3.0943 5.2832,-2.0885 7.2469,1.187 0.3196,0.533 1.9229,3.5244 1.6557,4.2162zm6.0624 8.466c-0.0053,-1.1633 -0.998,-5.1766 -1.3561,-6.674 -0.7244,-3.0299 -0.6906,-1.3124 0.0346,-4.2723 0.4073,-1.6623 1.2224,-5.2153 1.3658,-6.7115 -0.5459,-0.3163 -3.2082,-1.958 -3.5995,-1.9866l-0.8466 4.5051c-0.4867,-0.4857 -0.7269,-1.2748 -1.7022,-2.2094 -2.3038,-2.2075 -5.6793,-2.9774 -8.6205,-1.6112 -7.5501,3.5072 -7.3796,16.4914 -0.1309,19.9366 2.9807,1.4167 6.388,0.6861 8.778,-1.47 0.9321,-0.8408 1.2508,-1.6027 1.4956,-1.8839 0.1538,-0.1765 0.0536,-0.1242 0.2948,-0.2022l0.8185 4.3712 3.4685 -1.7918z"/>
    <path id="_348450272" class="fil1" d="M7.8089 27.7307c2.9783,-0.5805 5.0364,3.7774 5.8806,5.9659 0.4526,1.1733 0.2834,1.2221 -0.1613,2.3146 -0.7385,1.8142 -1.9916,4.2829 -3.9233,4.979 -1.8428,0.6641 -3.4121,-0.3389 -4.282,-1.2953 -3.0888,-3.3959 -2.1485,-11.061 2.486,-11.9642zm-7.8888 3.6748l0 5.9186c0.0853,0.1547 0.4368,1.5563 0.9073,2.5416 0.3457,0.7241 0.7726,1.4809 1.3326,2.1441 1.0915,1.2925 2.3589,2.2654 4.1161,2.8169 2.8415,0.8918 6.1464,-0.386 7.8059,-2.0726 0.3445,-0.3501 0.9097,-1.042 1.166,-1.4628 0.1765,-0.2899 0.1654,-0.3554 0.449,-0.4663l0.9003 4.3576c0.6413,-0.3337 3.0485,-1.4918 3.4101,-1.8638 -0.2787,-1.5579 -0.5228,-2.9562 -0.8712,-4.5044 -1.1198,-4.9763 -1.3643,-3.0436 -0.4534,-6.4454 0.3111,-1.1619 1.4402,-6.0325 1.2871,-6.6609l-3.5636 -1.9683 -0.8248 4.5253 -0.7319 -1.0591c-1.7699,-2.5305 -5.1531,-4.1077 -8.4156,-3.1958 -2.6758,0.7479 -4.413,2.5936 -5.5412,4.8722 -0.1935,0.3908 -0.3532,0.7758 -0.5254,1.2505l-0.2968 0.9729c-0.0286,0.0792 -0.0427,0.1064 -0.0802,0.1846l-0.0703 0.1151z"/>
    <path id="_348450560" class="fil1" d="M37.2534 38.4349c-0.2816,0.2376 -0.4698,0.7561 -1.2092,1.3865 -1.6699,1.4236 -3.8054,1.7951 -5.7769,0.8366 -5.0187,-2.44 -4.5506,-11.1979 0.845,-12.7843 1.2407,-0.3648 8.2392,-0.1647 10.0919,-0.1835l-0.993 -3.8689 -7.6173 -0.0841c-6.3683,0.0072 -10.7364,6.2601 -9.5085,12.9854 1.2022,6.5845 7.8261,10.3518 13.6789,7.3808 1.3357,-0.6781 3.3802,-2.4418 3.8638,-3.7479l-3.3747 -1.9206z"/>
    <path id="_348450536" class="fil1" d="M149.125 23.6251c-0.1148,0.6158 -0.0253,7.2076 -0.0253,8.433 0,5.5882 -0.9088,11.3882 5.3564,13.5183 1.2705,0.4319 1.1388,0.3761 1.2327,-0.2965 0.1333,-0.955 0.5396,-2.636 0.5535,-3.5248l-2.7881 -2.5558c-0.3081,-1.4327 -0.3681,-3.4389 -0.3614,-5.0245 0.0076,-1.778 0.0149,-3.556 0.0228,-5.334l0.0179 -3.9794c0.0023,-0.4153 0.0767,-1.0459 -0.1099,-1.1503 -0.279,-0.1561 -1.5851,-0.0944 -1.9084,-0.096 -0.621,-0.0031 -1.3867,-0.0447 -1.9902,0.01z"/>
   </g>
   <path id="_348450848" class="fil2" d="M148.526 17.411l-0.3492 -0.2818c-0.0131,0.0213 -0.3208,-0.0598 0.105,0.5756 0.134,0.1999 0.21,0.3214 0.3529,0.4896 0.8351,0.9826 1.7214,1.7662 3.1744,2.0258 3.602,0.6436 4.7703,-1.4368 5.233,-1.5899 0.3912,-0.2348 0.9955,-1.4094 1.1931,-2.0542 1.667,-5.4389 -4.7635,-9.9106 -6.1624,-13.5011 -0.4068,-1.0441 -0.4463,-1.6578 -0.6182,-2.7493 -0.6034,0.221 -2.2655,3.3014 -1.2143,6.0163 0.7706,1.9898 1.9604,3.0124 3.1597,4.717 0.5541,0.7877 1.0966,1.4397 1.3797,2.5246 0.3329,1.2755 -0.0945,2.3962 -0.7223,3.1291 -1.4228,1.6607 -3.3264,2.1021 -5.2291,0.8674 -0.126,-0.0818 -0.0311,-0.0274 -0.1509,-0.095 -0.1278,-0.0722 -0.0315,-0.0265 -0.1514,-0.0741z"/>
  </g>
 </g>
</svg>
